<?xml version="1.0" encoding="utf-8"?>
<!-- Generator: Adobe Illustrator 27.8.0, SVG Export Plug-In . SVG Version: 6.00 Build 0)  -->
<svg version="1.1" id="Ebene_1" xmlns="http://www.w3.org/2000/svg" xmlns:xlink="http://www.w3.org/1999/xlink" x="0px" y="0px"
	 viewBox="0 0 416 316" style="enable-background:new 0 0 416 316;" xml:space="preserve">
<style type="text/css">
	.st0{fill:#67B54A;}
	.st1{fill:#FFFFFF;}
	.st2{fill:#5E2D7A;}
	.st3{fill:#FF559D;}
	.st4{fill:#D01760;}
	.st5{fill:#FF89BB;}
	.st6{fill-rule:evenodd;clip-rule:evenodd;fill:#D01760;}
	.st7{fill-rule:evenodd;clip-rule:evenodd;fill:#FF559D;}
	.st8{fill-rule:evenodd;clip-rule:evenodd;fill:#FF89BB;}
	.st9{fill-rule:evenodd;clip-rule:evenodd;}
	.st10{fill:#C22FA4;}
</style>
<path d="M88,174.6v-28.1H73.8V137h30.3v9.5H90v28.1H88z"/>
<path d="M113.3,151.7c0-2.8,0.7-5.4,2.1-7.8c1.4-2.4,3.3-4.3,5.7-5.7c2.4-1.4,5-2.1,7.9-2.1c2.8,0,5.5,0.7,7.8,2.1
	c2.4,1.4,4.3,3.3,5.7,5.7c1.4,2.4,2.1,5,2.1,7.8v8.3c0,2.8-0.7,5.4-2.1,7.8c-1.4,2.4-3.3,4.3-5.7,5.7c-2.4,1.4-5,2.1-7.8,2.1
	c-2.8,0-5.5-0.7-7.9-2.1c-2.4-1.4-4.3-3.3-5.7-5.7c-1.4-2.4-2.1-5-2.1-7.8V151.7z M123.1,160c0,1.7,0.5,3.2,1.6,4.4
	c1.1,1.2,2.5,1.8,4.2,1.8c1.7,0,3.1-0.6,4.2-1.8c1.1-1.2,1.6-2.7,1.6-4.4v-8.4c0-1.8-0.5-3.2-1.6-4.4c-1.1-1.2-2.5-1.8-4.2-1.8
	c-1.7,0-3.1,0.6-4.2,1.8c-1.1,1.2-1.6,2.7-1.6,4.4V160z"/>
<path class="st0" d="M83.2,139.1c-2.6,2.3-4.9,4.9-7.2,7.5c-0.5,0.6-1.1,1.2-1.6,1.8c0,0.6,0,1.1,0,1.7c0,1.6,0.2,3.2,0.3,4.7
	c0.2,0.3,0.4,0.6,0.6,0.9c3,4.7,5.7,9.7,7.9,14.9c2.2,5.2,4,10.6,5.3,16.1c0.2,0.7,0.3,1.4,0.5,2.1c0.1,0.6-0.8,0.9-0.9,0.3
	c-1.2-5.5-2.9-11-5-16.2c-0.9-2.2-1.9-4.5-3-6.6c-2.1-2.4-4.8-4-7.5-5.4c-2.9-1.4-5.9-2.6-8.8-4c-0.2-0.1-0.5-0.2-0.7-0.3
	c-2.8,1.5-5.7,2.7-8.8,3.4c-1.5,0.4-3.1,0.6-4.7,0.8c-1.6,0.2-3.1,0.3-4.7,0.2c-3-0.2-6-1.1-8.6-2.7c-1.3-0.8-2.4-1.8-3.4-3
	c-1.1-1.3-1.9-2.9-3.2-4.1c-0.6-0.6-1.4-0.9-2.2-1.2c-0.8-0.3-1.6-0.5-2.3-1c-1.2-0.8-1.9-2.2-1.1-3.6c0.7-1.3,2.1-1.9,3.3-2.5
	c1.3-0.6,2.6-1.1,4-1.6c5.5-1.7,11.6-1.6,17,0.4c5.8,2.2,10.8,6.7,13.9,12c0.4,0.6,0.7,1.3,1,1.9c2.8,1.4,5.7,2.6,8.6,3.9
	c2.4,1.1,4.7,2.4,6.7,4.1c-1.1-2-2.2-3.9-3.4-5.9c-3-4.8-6.4-9.4-10.1-13.6c-0.6-0.7-1.3-1.4-2-2.1c-2.2-0.1-4.3-0.5-6.4-1.1
	c-2.3-0.7-4.5-1.5-6.7-2.5c-1-0.4-1.9-0.9-2.8-1.4c-0.1,0.1-0.2,0.2-0.3,0.2c-0.2,0.1-0.4,0.1-0.5,0c-1.1,0.3-2.3-0.2-2.6-1.4
	c-0.2-0.7,0-1.5,0.5-2c0.5-0.5,1.3-0.8,1.9-0.5c0.5,0.2,0.9,0.6,1.1,1.1c0.3,0.3,0.6,0.7,0.6,1.1c0,0.2,0,0.5-0.1,0.7
	c3.8,2.1,7.8,3.7,12,4.5c0.8,0.2,1.6,0.3,2.4,0.3c-1-1-1.9-1.9-2.9-2.9c-2.1-2-4.3-3.9-6.4-5.8c-0.7-0.6-1.3-1.2-2-1.8l0,0
	c-4.5-1.1-9-1.9-13.6-2.4c-1.3-0.1-2.6-0.3-3.9-0.4c-2.5,0.7-5.1,1.3-7.6,1c-1.2-0.1-2.4-0.5-3.5-1c0,0-0.1,0-0.1,0
	c-1.2-0.6-2.3-1.4-3.2-2.5c-0.7-0.9-1.2-2-0.9-3.2c0.3-1.3,1.5-2,2.7-2.2c1.2-0.2,2.5,0,3.7,0.3c1.2,0.3,2.3,0.7,3.4,1.3
	c2.3,1.2,4.4,3,5.8,5.3c4.6,0.4,9.1,1,13.6,1.9c0.8,0.2,1.6,0.3,2.4,0.5c-2.6-2.6-5.1-5.5-6.9-8.8c0,0,0-0.1-0.1-0.1
	c-0.2-0.4-0.4-0.8-0.6-1.2c-0.2-0.4-0.4-0.8-0.5-1.2c-0.1,0.2-0.3,0.4-0.6,0.5c-0.5,0.2-0.9-0.1-1.3-0.3c-0.8-0.6-1.6-1.4-2.4-2.2
	c-1.4-1.5-2.7-3.2-3.8-5c-0.1,0-0.1-0.1-0.1-0.2c0,0,0,0,0-0.1c-0.5-0.9-1-1.9-1.5-2.9c-0.4-0.9-0.7-1.9-0.6-2.9
	c0.1-0.9,0.5-1.9,1.4-2.4c0.7-0.4,1.7-0.5,2.5-0.3c2,0.5,3.2,2.5,4.1,4.2c1.9,3.7,2.9,7.9,4,12c0.1,0.5,0.3,1,0.4,1.5
	c2,3.5,4.7,6.6,7.6,9.4c-0.9-3.5-0.8-7.3,0.3-10.7c0.3-1,0.7-1.9,1.2-2.8c0.1-0.2,0.2-0.4,0.4-0.6c-0.2,0-0.5,0-0.7-0.1
	c-2.5-0.8-2.5-3.8-2.4-5.9c0.2-2.2,0.8-4.5,2.7-5.7c1.7-1.1,4-1,5.1,0.8c0.6,0.9,0.7,2,0.6,3c-0.1,1.2-0.6,2.2-1.2,3.2
	c-0.6,1.2-1.2,2.3-2,3.4c0,0-0.1,0.1-0.1,0.1c-0.1,0.1-0.1,0.2-0.2,0.3c-0.1,0.1-0.2,0.2-0.3,0.3c-0.2,0.2-0.3,0.4-0.5,0.6
	c-0.3,0.4-0.6,0.9-0.8,1.3c-2,3.8-2.3,8.6-1.3,12.7c0.1,0.5,0.3,0.9,0.4,1.4c2.1,2,4.3,3.8,6.4,5.8c1.2,1.1,2.3,2.2,3.5,3.4
	c-1-2.8-1.2-6-0.2-8.9c0.3-1,0.9-1.9,1.5-2.9c-0.6,0.1-1.2-0.1-1.7-0.6c-0.5-0.4-0.8-1-1-1.5c-0.3-0.6-0.6-1.2-1-1.8
	c-0.5-1-1.1-1.9-1.3-3c-0.2-1,0-2,0.8-2.7c0.7-0.7,1.7-1,2.6-1c2.2,0,3.8,2.1,4,4.2c0.2,1.1,0.1,2.3-0.1,3.5c0,0.2-0.1,0.5-0.2,0.7
	c0,0,0,0,0,0c-0.1,0.4-0.2,0.8-0.4,1.1c-0.2,0.5-0.5,1-0.8,1.5c-0.6,1-1.2,2-1.6,3.2c-0.3,1-0.4,2-0.5,3c-0.1,2,0.4,4,1.2,5.9
	c0.2,0.5,0.4,0.9,0.7,1.3c0,0,0,0.1,0,0.1c0.2,0.2,0.4,0.4,0.5,0.6c3.1,3.4,6,7,8.6,10.8c-0.1-1.6-0.2-3.3-0.2-4.9
	c-2.2-5.3-3.3-11.2-2.5-16.9c0.4-2.9,1.4-5.7,3.1-8.2c1.6-2.4,3.8-4.5,6.5-5.7c1.5-0.7,3.3-0.9,5-1c1.6-0.1,3.7,0,5,1.2
	c0.6,0.6,0.9,1.3,0.8,2.2c0,0.5-0.1,1.1-0.3,1.5c-0.3,0.7-0.9,1.2-1.2,1.9c-0.3,0.6-0.4,1.4-0.4,2.1c0,0.7,0,1.4,0.1,2.2
	c0.1,1.3,0.2,2.6-0.2,3.8c-0.4,1.6-1.3,3-2.4,4.2C85.8,136.8,84.5,138,83.2,139.1z M50.4,143.5c-4.9-2.5-10.8-3-16.2-1.9
	c-2.7,0.5-5.3,1.5-7.7,2.9c-1,0.6-2.2,1.7-1.5,2.9c0.8,1.3,2.5,1.5,3.7,2.1c1.6,0.7,2.6,2,3.6,3.4c0.9,1.3,1.8,2.5,3,3.5
	c2.2,1.9,5,3,7.8,3.4c2.9,0.5,5.9,0.2,8.8-0.3c3-0.6,6-1.5,8.8-2.8c0.4-0.2,0.8-0.4,1.2-0.6c0,0,0,0,0,0c-4.2,0.1-8.4,0.2-12.6,0.3
	c-0.3,0-0.6-0.4-0.4-0.7c0.2-0.4,0.5-0.8,0.7-1.2c-2.6-0.4-5.2-0.8-7.8-1.2c-0.4-0.1-0.5-0.7-0.1-0.9c0.7-0.4,1.5-0.9,2.2-1.3
	c-2.3-1-4.7-2-7-3c-0.4-0.2-0.3-0.8,0.1-0.9c5.9-1.5,12.1-0.5,17.3,2.5c2.6,1.6,5,3.5,7.7,5C59.3,149.9,55.3,145.9,50.4,143.5z
	 M45.2,151.4c-0.6,0.4-1.2,0.8-1.9,1.1c2.4,0.4,4.8,0.7,7.2,1.1c0.3,0,0.5,0.4,0.3,0.7l-0.6,1c3.5-0.1,6.9-0.2,10.4-0.3
	c-0.4-0.2-0.8-0.5-1.2-0.8c-1.4-0.9-2.8-1.9-4.2-2.9c-2.6-1.7-5.4-3-8.4-3.6c-2.7-0.5-5.4-0.5-8.1-0.1c2.2,0.9,4.3,1.9,6.5,2.8
	C45.5,150.7,45.4,151.2,45.2,151.4z M25.6,127.6c2.3,0.4,4.6-0.1,6.8-0.7c-1.6-0.9-3.3-1.4-5.1-1.6c-0.5-0.1-1.1-0.1-1.6-0.1
	c-0.5,0-1,0-1.5,0.2c-0.3,0.1-0.6,0.4-0.8,0.7c-0.1,0.2-0.3,0.5-0.3,0.7C23.8,127.3,24.7,127.5,25.6,127.6z M22.5,120.7
	c-1-0.1-2.4,0-3.1,0.9c-0.6,0.8-0.2,1.9,0.3,2.7c0.6,1,1.5,1.7,2.5,2.3c0.1-0.4,0.4-0.8,0.6-1.1c0.6-0.7,1.4-0.9,2.2-1
	c1-0.1,2,0.1,2.9,0.2c1,0.1,1.9,0.4,2.8,0.7c0.4,0.1,0.7,0.3,1.1,0.4C29.6,122.9,26,121,22.5,120.7z M40.4,111.9
	c-0.3-0.9-0.6-1.8-0.9-2.6c-0.6-1.6-1.4-3.2-2.4-4.6c-0.9-1.1-2.5-2.3-4-1.4c-0.7,0.4-0.9,1.3-0.9,2.1c0.1,0.9,0.4,1.7,0.8,2.5
	c0.3,0.6,0.6,1.2,0.9,1.8c0.3-0.2,0.6-0.3,0.9-0.3c0.7-0.1,1.4-0.2,2.1,0.1C38.3,109.9,39.5,110.8,40.4,111.9z M41,116.5
	c0-0.7-0.1-1.4-0.3-2.1c-0.5-1.5-1.6-2.8-2.9-3.6c-0.6-0.3-1.3-0.6-2-0.6c-0.3,0-0.7,0-1,0.1c-0.1,0-0.3,0.1-0.4,0.2
	c0.5,0.8,1,1.6,1.6,2.3c1.1,1.5,2.5,2.9,3.9,4.1c0.2,0.1,0.6,0.6,0.9,0.5C41,117.4,41,116.7,41,116.5z M53.2,110.2
	c0.6,0.5,1.3,1,1.8,1.7c0.1,0.1,0.1,0.2,0.2,0.4c0.5-0.8,0.9-1.6,1.3-2.4c0.2-0.3,0.3-0.7,0.5-1c-0.1,0-0.1,0-0.2-0.1
	c-0.8-0.7-1.7-1.5-2.8-1.5c-0.8,0-1.8,0.4-1.9,1.3C52,109.2,52.7,109.8,53.2,110.2z M52.4,114c0.5,0.3,1.2,0.3,1.7-0.1
	c0.1-0.1,0.2-0.3,0.3-0.4c0,0,0,0,0-0.1c0.2-0.6-0.3-1.2-0.7-1.6c-1.1-1-3-2-2.5-3.7c0.3-0.9,1.1-1.5,2-1.7c1-0.2,2.1,0.1,2.9,0.7
	c0.4,0.3,0.8,0.6,1.2,0.9c0.1-0.4,0.2-0.7,0.2-1.1c0-0.9-0.2-1.9-0.9-2.5c-0.6-0.6-1.5-0.8-2.3-0.6c-2,0.5-3,2.4-3.3,4.3
	c-0.2,1.1-0.2,2.3-0.1,3.4C51,112.4,51.4,113.5,52.4,114z M64.6,119.9c-0.2-0.4-0.6-0.8-1-1.1c-0.7-0.5-1.6-0.7-2.5-0.4
	c-0.8,0.2-1.4,0.8-1.5,1.6c0.3-0.3,0.8-0.5,1.3-0.6C62.1,119.2,63.4,119.6,64.6,119.9z M64.7,123c0.2,0.2,0.4,0.4,0.6,0.6
	c0.1-0.9,0.1-1.8-0.2-2.6c-1.2-0.3-2.3-0.6-3.5-0.6c-0.3,0-0.6,0-0.9,0.1c-0.2,0-0.1,0-0.3,0.1c-0.1,0-0.1,0.1-0.2,0.1
	c0,0.1-0.1,0.2-0.1,0.2c0,0.2,0,0.3,0.1,0.5c0.3,0.4,0.9,0.4,1.3,0.5c0.5,0.1,1.1,0.2,1.6,0.3C63.7,122.4,64.2,122.6,64.7,123z
	 M64,126.8c0.2-0.1,0.3-0.3,0.5-0.5c0.1-0.3,0.3-0.6,0.4-0.9c0-0.1,0-0.2,0-0.3c-0.1-1-1-1.6-1.9-2c-0.9-0.4-1.9-0.3-2.8-0.7
	c0,0.1,0.1,0.2,0.1,0.3c0.6,1.1,1.1,2.2,1.8,3.3C62.5,126.7,63.2,127.3,64,126.8z M76,143.6c0.8-1.4,1.6-2.9,2.5-4.3
	c0.8-1.4,1.6-2.8,2.5-4.1c0.4-0.6,0.8-1.2,1.2-1.7c0.5-0.7,1.2-1.4,1.5-2.2c0.3-0.7,0.3-1.7-0.5-2.1c-0.3-0.1-0.6-0.2-0.8,0
	c-0.2,0.2-0.3,0.5-0.2,0.7c0.3,0.5-0.5,1-0.8,0.5c-0.4-0.7-1-1.4-1.4-2.1c-1.3,2.4-1.9,5.1-1.9,7.8c0,0.5-0.6,0.7-0.9,0.3
	c-0.5-0.7-1-1.5-1.5-2.2c-0.6,4-1.1,8-1.3,12C75,145.3,75.5,144.4,76,143.6z M88.5,129.5c0-1.3-0.1-2.6-0.1-3.9c0-0.7,0-1.4,0.2-2
	c0.2-0.8,0.6-1.3,1-2c0.5-0.7,0.8-1.8,0.6-2.6c-0.1-0.3-0.2-0.5-0.4-0.7c-0.2-0.2-0.5-0.4-0.8-0.5c-0.7-0.3-1.5-0.4-2.3-0.4
	c-1.7-0.1-3.4,0.2-5,0.7c-0.1,0-0.3,0.1-0.4,0.1c-0.1,0-0.1,0-0.2,0.1c0,0,0,0,0,0c0,0-0.1,0-0.1,0c0,0,0,0,0,0c0,0,0,0,0,0
	c0,0,0,0,0,0c-0.6,0.3-1.2,0.6-1.8,1c-1.2,0.8-2.3,1.8-3.2,2.9c-1.9,2.2-3.2,4.8-3.8,7.6c-1.2,5.3-0.4,10.8,1.4,15.9
	c0.1-2.7,0.4-5.5,0.8-8.2c0.2-1.6,0.4-3.2,0.7-4.9c0.1-0.4,0.7-0.5,0.9-0.1c0.4,0.7,0.9,1.3,1.3,2c0.2-2.6,0.9-5.2,2.3-7.4
	c0.2-0.3,0.6-0.4,0.8,0c0.3,0.6,0.7,1.1,1.1,1.6c0.1-0.2,0.3-0.4,0.5-0.5c0.8-0.5,1.8-0.2,2.3,0.5c0.6,0.7,0.7,1.7,0.4,2.6
	c-0.3,1-1,1.8-1.6,2.6c0,0,0,0-0.1,0.1c-1.1,1.3-1.9,2.7-2.8,4.2c-1,1.6-1.9,3.3-2.8,4.9c-0.3,0.5-0.6,1.1-0.9,1.6
	c1.3-1.4,2.6-2.9,3.9-4.2c2.3-2.3,5.1-4.2,6.9-7.1C88,132.1,88.5,130.9,88.5,129.5z"/>
<path class="st1" d="M88.5,129.5c0-1.3-0.1-2.6-0.1-3.9c0-0.7,0-1.4,0.2-2c0.2-0.8,0.6-1.3,1-2c0.5-0.7,0.8-1.8,0.6-2.6
	c-0.1-0.3-0.2-0.5-0.4-0.7c-0.2-0.2-0.5-0.4-0.8-0.5c-0.7-0.3-1.5-0.4-2.3-0.4c-1.7-0.1-3.4,0.2-5,0.7c-0.1,0-0.3,0.1-0.4,0.1
	c-0.1,0-0.1,0-0.2,0.1l0,0c0,0-0.1,0-0.1,0l0,0c0,0,0,0,0,0l0,0c-0.6,0.3-1.2,0.6-1.8,1c-1.2,0.8-2.3,1.8-3.2,2.9
	c-1.9,2.2-3.2,4.8-3.8,7.6c-1.2,5.3-0.4,10.8,1.4,15.9c0.1-2.7,0.4-5.5,0.8-8.2c0.2-1.6,0.4-3.2,0.7-4.9c0.1-0.4,0.7-0.5,0.9-0.1
	l1.3,2c0.2-2.6,0.9-5.2,2.3-7.4c0.2-0.3,0.6-0.4,0.8,0c0.3,0.6,0.7,1.1,1.1,1.6c0.1-0.2,0.3-0.4,0.5-0.5c0.8-0.5,1.8-0.2,2.3,0.5
	c0.6,0.7,0.7,1.7,0.4,2.6c-0.3,1-1,1.8-1.6,2.6l-0.1,0.1c-1.1,1.3-1.9,2.7-2.8,4.2c-1,1.6-1.9,3.3-2.8,4.9c-0.3,0.5-0.6,1.1-0.9,1.6
	c1.3-1.4,2.6-2.9,3.9-4.2c2.3-2.3,5.1-4.2,6.9-7.1C88,132.1,88.5,130.9,88.5,129.5z"/>
<path class="st2" d="M76,143.6c0.8-1.4,1.6-2.9,2.5-4.3c0.8-1.4,1.6-2.8,2.5-4.1c0.4-0.6,0.8-1.2,1.2-1.7c0.5-0.7,1.2-1.4,1.5-2.2
	c0.3-0.7,0.3-1.7-0.5-2.1c-0.3-0.1-0.6-0.2-0.8,0c-0.2,0.2-0.3,0.5-0.2,0.7c0.3,0.5-0.5,1-0.8,0.5c-0.4-0.7-1-1.4-1.4-2.1
	c-1.3,2.4-1.9,5.1-1.9,7.8c0,0.5-0.6,0.7-0.9,0.3l-1.5-2.2c-0.6,4-1.1,8-1.3,12C75,145.3,75.5,144.4,76,143.6z"/>
<path class="st1" d="M50.4,143.5c-4.9-2.5-10.8-3-16.2-1.9c-2.7,0.5-5.3,1.5-7.7,2.9c-1,0.6-2.2,1.7-1.5,2.9
	c0.8,1.3,2.5,1.5,3.7,2.1c1.6,0.7,2.6,2,3.6,3.4c0.9,1.3,1.8,2.5,3,3.5c2.2,1.9,5,3,7.8,3.4c2.9,0.5,5.9,0.2,8.8-0.3
	c3-0.6,6-1.5,8.8-2.8c0.4-0.2,0.8-0.4,1.2-0.6c0,0,0,0,0,0l-12.6,0.3c-0.3,0-0.6-0.4-0.4-0.7l0.7-1.2l-7.8-1.2
	c-0.4-0.1-0.5-0.7-0.1-0.9l2.2-1.3l-7-3c-0.4-0.2-0.3-0.8,0.1-0.9c5.9-1.5,12.1-0.5,17.3,2.5c2.6,1.6,5,3.5,7.7,5
	C59.3,149.9,55.3,145.9,50.4,143.5z"/>
<path class="st2" d="M45.2,151.4l-1.9,1.1l7.2,1.1c0.3,0,0.5,0.4,0.3,0.7l-0.6,1l10.4-0.3c-0.4-0.2-0.8-0.5-1.2-0.8
	c-1.4-0.9-2.8-1.9-4.2-2.9c-2.6-1.7-5.4-3-8.4-3.6c-2.7-0.5-5.4-0.5-8.1-0.1l6.5,2.8C45.5,150.7,45.4,151.2,45.2,151.4z"/>
<path class="st1" d="M40.4,111.9c-0.3-0.9-0.6-1.8-0.9-2.6c-0.6-1.6-1.4-3.2-2.4-4.6c-0.9-1.1-2.5-2.3-4-1.4
	c-0.7,0.4-0.9,1.3-0.9,2.1c0.1,0.9,0.4,1.7,0.8,2.5c0.3,0.6,0.6,1.2,0.9,1.8c0.3-0.2,0.6-0.3,0.9-0.3c0.7-0.1,1.4-0.2,2.1,0.1
	C38.3,109.9,39.5,110.8,40.4,111.9z"/>
<path class="st2" d="M41,116.5c0-0.7-0.1-1.4-0.3-2.1c-0.5-1.5-1.6-2.8-2.9-3.6c-0.6-0.3-1.3-0.6-2-0.6c-0.3,0-0.7,0-1,0.1
	c-0.1,0-0.3,0.1-0.4,0.2c0.5,0.8,1,1.6,1.6,2.3c1.1,1.5,2.5,2.9,3.9,4.1c0.2,0.1,0.6,0.6,0.9,0.5C41,117.4,41,116.7,41,116.5z"/>
<path class="st2" d="M25.6,127.6c2.3,0.4,4.6-0.1,6.8-0.7c-1.6-0.9-3.3-1.4-5.1-1.6c-0.5-0.1-1.1-0.1-1.6-0.1c-0.5,0-1,0-1.5,0.2
	c-0.3,0.1-0.6,0.4-0.8,0.7c-0.1,0.2-0.3,0.5-0.3,0.7C23.8,127.3,24.7,127.5,25.6,127.6z"/>
<path class="st1" d="M22.5,120.7c-1-0.1-2.4,0-3.1,0.9c-0.6,0.8-0.2,1.9,0.3,2.7c0.6,1,1.5,1.7,2.5,2.3c0.1-0.4,0.4-0.8,0.6-1.1
	c0.6-0.7,1.4-0.9,2.2-1c1-0.1,2,0.1,2.9,0.2c1,0.1,1.9,0.4,2.8,0.7c0.4,0.1,0.7,0.3,1.1,0.4C29.6,122.9,26,121,22.5,120.7z"/>
<path class="st2" d="M53.2,110.2c0.6,0.5,1.3,1,1.8,1.7c0.1,0.1,0.1,0.2,0.2,0.4c0.5-0.8,0.9-1.6,1.3-2.4c0.2-0.3,0.3-0.7,0.5-1
	c-0.1,0-0.1,0-0.2-0.1c-0.8-0.7-1.7-1.5-2.8-1.5c-0.8,0-1.8,0.4-1.9,1.3C52,109.2,52.7,109.8,53.2,110.2z"/>
<path class="st2" d="M64.7,123c0.2,0.2,0.4,0.4,0.6,0.6c0.1-0.9,0.1-1.8-0.2-2.6c-1.2-0.3-2.3-0.6-3.5-0.6c-0.3,0-0.6,0-0.9,0.1
	c-0.2,0-0.1,0-0.3,0.1c-0.1,0-0.1,0.1-0.2,0.1c0,0.1-0.1,0.2-0.1,0.2c0,0.2,0,0.3,0.1,0.5c0.3,0.4,0.9,0.4,1.3,0.5
	c0.5,0.1,1.1,0.2,1.6,0.3C63.7,122.4,64.2,122.6,64.7,123z"/>
<path class="st3" d="M315.7,195.2c4.8-0.5,8.2,5.8,13.3,2.4c2.3-1.5,4.4-3.2,7-3.8c-0.7-3.3-3.5-7.7-7.4-7.5c2.6-6-4.7-8.7-7.6-12.4
	c-2.1-3.2-4-7.6-8.3-7.9c-4.6-0.1-3.1,3.4-3.1,6.4c-3.2-2.1-8.8-8.1-12-3.4c-4.3,8.1,1.3,23.2,11.1,24.1c-0.1,0.8,0,1.7,0.1,2.5
	c-9.4,13.1-16,27.9-20.6,43.4h1.5c4.4-15.3,10.7-30,20.3-42.8C311.6,196.4,315.1,197.5,315.7,195.2z M334.4,192.9
	c-3.9,1.1-7.3,6.3-11.7,3.5c-0.7-0.4-1.3-0.9-2-1.4c2,0.3,6.1,0.3,7.1-1.5c-1.1-1.4-3.7,0.7-5.4,0.4c-1.7,0-3.3-1.2-5.1-0.9
	c3.5-1.6,7.3-2.9,10.3-5.4C331.4,187.2,332.8,189.9,334.4,192.9z M310.5,168.7c-0.1-0.6,0.4-1.1,0.9-1.2c4.8-1,6.6,5,9.1,8
	c2.6,2.9,7.8,4.5,7.2,9.3c-2.4,4.7-9,5.9-13.6,7.8c0,0-0.1-0.1-0.1-0.1c0.8-6.7,6.3-4.1,5.7-6.8c-3.1-0.4-6.3,2.4-6.8,5.6
	C303.8,183,312,177.2,310.5,168.7z M309.2,190.3c-1.3-3-4.9-4.6-5.6-7.8c0-0.6,0.1-1.3-0.6-1.4c-3.1,3.6,4.7,7,5.4,10.6
	c-8.1-0.9-11.6-12-11-19.1c1.3-7.9,8.2-1.4,11.8,1.1c-2.4,5.2-3,11.4,0.7,16.2C309.6,190,309.4,190.1,309.2,190.3z"/>
<path class="st2" d="M288.3,208.7c-1.6-8.1,4.8-13,11.2-15.9c2.4,0.6,2.5,5.3,1.9,7.5c11.9-3-1.2,18.2-12.5,12.5
	c-2.2,4.6-4.7,9-7.4,13.3l-0.4-2.3c2.4-4,4.7-8,6.9-11.8C287.2,211,287.3,209.5,288.3,208.7z M299.9,200.5c0.8-2,0.6-4.3-0.4-6.2
	c-5.1,2.4-10.7,5.9-10.1,12.5c0,0.4,0,0.9,0.1,1.3c0.1,0,0.3,0,0.4,0c-0.1-2.1,0.2-6.7,2.6-7c0.8,0.6-0.4,1.6-0.6,2.3
	c-0.7,1.6-1,3.5-0.7,5.3c0,0,0,0,0,0C292.2,204.4,295.8,201.2,299.9,200.5z M292.7,212.2c5.9-0.1,12-4.5,12-10.9
	c-1.5,0.1-3,0.2-4.4,0.5c-3.9,0.6-7.2,3.8-7.8,7.8c1.4-1.8,3.9-2.3,5.7-2.9c0.5-1.9,3.3-0.9,1.4,0.2
	C297.9,209.3,292.8,208.4,292.7,212.2z"/>
<path class="st0" d="M299.9,200.5c0.8-2,0.6-4.3-0.4-6.2c-5.1,2.4-10.7,5.9-10.1,12.5c0,0.4,0,0.9,0.1,1.3c0.1,0,0.3,0,0.4,0
	c-0.1-2.1,0.2-6.7,2.6-7c0.8,0.6-0.4,1.6-0.6,2.3c-0.7,1.6-1,3.5-0.7,5.3c0,0,0,0,0,0C292.2,204.4,295.8,201.2,299.9,200.5z"/>
<path class="st0" d="M292.7,212.2c5.9-0.1,12-4.5,12-10.9c-1.5,0.1-3,0.2-4.4,0.5c-3.9,0.6-7.2,3.8-7.8,7.8c1.4-1.8,3.9-2.3,5.7-2.9
	c0.5-1.9,3.3-0.9,1.4,0.2C297.9,209.3,292.8,208.4,292.7,212.2z"/>
<path d="M88,189.9L84.5,177h22.3l-10.1,37.6h-2.1L89,193.7l-5.6,20.9h-2.1L71.2,177h2.1l9.1,33.9L88,189.9z M104.2,179H87.1
	l2.9,10.9l5.7,21L104.2,179z"/>
<path d="M114.5,214.6V177h2v10.6c3.7,0,7.2,0.7,10.5,2.2c3.3,1.4,6.2,3.4,8.7,5.9c2.5,2.5,4.4,5.4,5.7,8.7V177h2v37.6h-2
	c0-4.5-1.1-8.7-3.3-12.5c-2.2-3.9-5.3-6.9-9.1-9.1c-3.8-2.2-8-3.3-12.5-3.3v24.9H114.5z"/>
<path d="M153.3,191.7c0-2.8,0.7-5.4,2.1-7.8c1.4-2.4,3.3-4.3,5.7-5.7c2.4-1.4,5-2.1,7.9-2.1c2.8,0,5.5,0.7,7.8,2.1
	c2.4,1.4,4.3,3.3,5.7,5.7c1.4,2.4,2.1,5,2.1,7.8v8.3c0,2.8-0.7,5.4-2.1,7.8c-1.4,2.4-3.3,4.3-5.7,5.7c-2.4,1.4-5,2.1-7.8,2.1
	c-2.8,0-5.5-0.7-7.9-2.1c-2.4-1.4-4.3-3.3-5.7-5.7c-1.4-2.4-2.1-5-2.1-7.8V191.7z M163.1,200c0,1.7,0.5,3.2,1.6,4.4s2.5,1.8,4.2,1.8
	c1.7,0,3.1-0.6,4.2-1.8c1.1-1.2,1.6-2.7,1.6-4.4v-8.4c0-1.8-0.5-3.2-1.6-4.4c-1.1-1.2-2.5-1.8-4.2-1.8c-1.7,0-3.1,0.6-4.2,1.8
	c-1.1,1.2-1.6,2.7-1.6,4.4V200z"/>
<path d="M195.9,177c-0.8-0.1-1.3,0-2.2,0c-14.7,0.8,0,37.6,0,37.6l2-1.9c0,0-12.3-34.1,0-31.9c9.6,1.7,12.3,21.7,12.3,21.7h1.9
	c0,0,2.7-19.6,12.2-21.4c12.1-2.2,0,31.6,0,31.6l2,1.9c0,0,14.7-36.8,0-37.6c-0.8,0-1.2,0-2,0c-10.4,0.7-13.1,23.2-13.1,23.2
	S206.3,177.7,195.9,177z"/>
<path d="M195.7,177c-0.8-0.1-1.3,0-2.2,0c-14.7,0.8,0,37.6,0,37.6l2-1.9c0,0-12.3-34.1,0-31.9c9.6,1.7,12.3,21.7,12.3,21.7h1.9
	c0,0,2.7-19.6,12.2-21.4c12.1-2.2,0,31.6,0,31.6l2.1,1.8c0,0,14.5-36.7-0.1-37.5c-0.8,0-1.2,0-2,0c-10.4,0.7-13.1,23.2-13.1,23.2
	S206.1,177.7,195.7,177z"/>
<path class="st4" d="M221.9,212.7c0,0,12.1-33.8,0-31.6c-9.4,1.7-12.2,21.4-12.2,21.4h-1.9c0,0-2.7-20-12.3-21.7
	c-12.3-2.2,0,31.9,0,31.9l-2,1.9l30.5-0.1L221.9,212.7z"/>
<path d="M76.8,226.3v-9.5h24.3v9.5H90v18.6h11.2v9.5H76.8v-9.5H88v-18.6H76.8z"/>
<path d="M128,254.4v-28.1h-14.2v-9.5h30.3v9.5h-14.2v28.1H128z"/>
<path d="M193.7,216.8h2.2L209,240l13.1-23.2h2v37.6h-30.3V216.8z M195.7,252.4h26.4v-31.6l-12.2,21.4H208l-12.3-21.7V252.4z"/>
<path d="M266.6,254.4h-35.4l17.7-38.4L266.6,254.4z M234.3,252.4h29.2l-14.6-31.6L234.3,252.4z"/>
<path d="M272.8,216.8h32.1l-15,22.2v15.4h-2V239L272.8,216.8z"/>
<path d="M193.7,216.8h2.2L209,240l13.1-23.2h2v37.6h-30.3V216.8z M195.7,252.4h26.4v-31.6l-12.2,21.4H208l-12.3-21.7V252.4z"/>
<path class="st4" d="M195.9,216.8L209,240l13.1-23.2H195.9z"/>
<path d="M104.5,279.4c0,4.7-1.3,8.4-4.1,11.1c-2.7,2.6-6.5,3.9-11.3,3.9c-2.8,0-5.5-0.6-7.9-1.9c-2.4-1.3-4.3-3.1-5.7-5.5
	c-1.4-2.4-2.1-5.1-2.1-8.2v-7.9c0-3.1,0.7-5.8,2-8.2c1.4-2.4,3.2-4.2,5.6-5.5c2.4-1.3,5-2,7.9-2c4.8,0,8.5,1.3,11.2,3.9
	c2.7,2.6,4.1,6.3,4.2,11h-9.7c0-1.8-0.5-3.3-1.5-4.3c-0.9-1-2.3-1.5-4.2-1.5c-1.7,0-3,0.5-4.1,1.6s-1.6,2.5-1.6,4.4v8.8
	c0,1.9,0.6,3.4,1.7,4.5c1.2,1,2.6,1.6,4.2,1.6c3.8,0,5.7-1.9,5.7-5.8H104.5z"/>
<path d="M113.3,270.7c0-2.8,0.7-5.4,2.1-7.8c1.4-2.4,3.3-4.3,5.7-5.7c2.4-1.4,5-2.1,7.9-2.1c2.8,0,5.5,0.7,7.8,2.1
	c2.4,1.4,4.3,3.3,5.7,5.7c1.4,2.4,2.1,5,2.1,7.8v8.3c0,2.8-0.7,5.4-2.1,7.8c-1.4,2.4-3.3,4.3-5.7,5.7c-2.4,1.4-5,2.1-7.8,2.1
	c-2.8,0-5.5-0.7-7.9-2.1c-2.4-1.4-4.3-3.3-5.7-5.7c-1.4-2.4-2.1-5-2.1-7.8V270.7z M123.1,279c0,1.7,0.5,3.2,1.6,4.4s2.5,1.8,4.2,1.8
	c1.7,0,3.1-0.6,4.2-1.8c1.1-1.2,1.6-2.7,1.6-4.4v-8.4c0-1.8-0.5-3.2-1.6-4.4c-1.1-1.2-2.5-1.8-4.2-1.8c-1.7,0-3.1,0.6-4.2,1.8
	c-1.1,1.2-1.6,2.7-1.6,4.4V279z"/>
<path d="M154.3,293.6V256h2.1l26.2,25.5V256h2v37.6H154.3z"/>
<path d="M224.4,279.4c0,4.7-1.3,8.4-4.1,11.1c-2.7,2.6-6.5,3.9-11.3,3.9c-2.8,0-5.5-0.6-7.9-1.9c-2.4-1.3-4.3-3.1-5.7-5.5
	c-1.4-2.4-2.1-5.1-2.1-8.2v-7.9c0-3.1,0.7-5.8,2-8.2c1.4-2.4,3.2-4.2,5.6-5.5c2.4-1.3,5-2,7.9-2c4.8,0,8.5,1.3,11.2,3.9
	c2.7,2.6,4.1,6.3,4.2,11h-9.7c0-1.8-0.5-3.3-1.5-4.3c-0.9-1-2.3-1.5-4.2-1.5c-1.7,0-3,0.5-4.1,1.6c-1.1,1-1.6,2.5-1.6,4.4v8.8
	c0,1.9,0.6,3.4,1.7,4.5c1.2,1,2.6,1.6,4.2,1.6c3.8,0,5.7-1.9,5.7-5.8H224.4z"/>
<path d="M235.4,256h27.4v9.5h-17.5v4.8h14.6v9h-14.6v4.8h17.5v9.5h-27.4V256z"/>
<path d="M304.4,293.6h-28.9V256h14.6c3.1,0,5.7,0.6,7.7,1.7c1.9,1.1,3.5,2.6,4.5,4.4c1.1,1.9,1.6,3.9,1.6,6.2c0,2.8-0.9,5.3-2.6,7.6
	c-1.7,2.2-3.9,3.7-6.5,4.4L304.4,293.6z M278.9,258l14.7,20.5c2.4-0.5,4.4-1.7,6-3.6c1.6-1.9,2.4-4.1,2.4-6.6c0-2-0.5-3.8-1.5-5.4
	c-1-1.6-2.3-2.9-4.1-3.7c-1.6-0.8-3.7-1.2-6.2-1.2H278.9z M277.5,259.3v19.4h13.9L277.5,259.3z M277.5,291.6h23.1l-7.9-11l-1.7,0.1
	h-13.6V291.6z"/>
<path d="M314.2,293.6V256h2.1l26.2,25.5V256h2v37.6H314.2z"/>
<path class="st4" d="M177,52.7c2.2-2,4.1-3.7,5.8-6.3c0.7-1.1,1.4-2.2,1.5-3.5c0.1-1.3-0.5-2.7-1.7-3.2c-1-0.4-2.3,0-3.1,0.8
	c-0.8,0.7-1.3,1.7-1.7,2.6l0,0l0,0c0,0,0,0.1-0.1,0.1c0,0,0,0,0,0l0,0l0.1-0.1c0.6-1.4-0.5-3.2-2.1-3.5c-1.6-0.3-3.2,0.8-3.9,2.3
	c-0.7,1.5-0.6,3.2-0.1,4.7c0.6,2.1,1.9,4,3.6,5.5c0,0,0,0,0,0L177,52.7z"/>
<path class="st4" d="M173.7,99.9c1.1,0.1,2.3,0.1,3.3-0.5c1-0.5,1.7-1.6,1.5-2.7c-0.2-0.9-0.9-1.5-1.8-1.9c-0.8-0.3-1.8-0.4-2.6-0.4
	c1.2,0,2.1-1.5,1.7-2.7c-0.4-1.2-1.8-1.8-3-1.7c-1.2,0.1-2.3,0.9-3.2,1.8c-1,1-1.7,2.2-2.1,3.6l0.2,1.9c0.2,0.1,0.4,0.2,0.6,0.3
	C170,98.7,171.8,99.8,173.7,99.9z"/>
<path class="st3" d="M162.4,71.3c0.6-0.8,1.3-1.6,1.6-2.5c0.3-1,0.1-2.1-0.7-2.7c-0.9-0.7-2.3-0.4-3.2,0.4c-0.6,0.6-1,1.4-1.4,2.2
	c0-0.9-0.6-1.9-1.6-2c-1.3-0.2-2.5,0.9-2.7,2.1s0.3,2.6,1.1,3.5c0.6,0.7,1.4,1.2,2.1,1.8l1.7-0.1c0.4-0.3,0.7-0.6,1.1-0.9
	C161.1,72.5,161.8,72,162.4,71.3z"/>
<path class="st5" d="M188.1,56.3c0.5-0.7,0.4-1.9-0.3-2.5c-0.9-0.8-2.3-0.7-3.2,0s-1.6,1.7-2,2.8c-0.5,1.4-0.7,2.8-0.6,4.3l1.4,0.9
	l0.1,0c0.5,0.1,1,0.2,1.5,0.1c1.4-0.1,2.9-0.2,4.1-0.9c1.2-0.7,2.1-2.2,1.7-3.5C190.6,56.4,189,55.8,188.1,56.3z"/>
<path class="st5" d="M143.3,91.5c0.9-0.8,1.9-1.7,2.3-2.9c0.4-1.2-0.2-2.7-1.4-3c-1.3-0.6-3,0.2-3.3,1.6c-0.2-1.3-1.5-2.4-2.8-2.2
	c-1.3,0.1-2.4,1.4-2.4,2.7c0.1,1.3,1.1,2.2,2.1,3.2c0.6,0.6,1.3,1.2,1.7,1.9l1.7,0.4c0.1-0.1,0.3-0.2,0.4-0.3l0,0l0,0
	C142.1,92.5,142.7,92.1,143.3,91.5z"/>
<path class="st6" d="M116.4,84.3c0.1-1.3,0.2-2.7-0.3-3.9c-0.5-1.1-1.5-1.9-2.6-2.1c-1.1-0.2-2.3,0.4-3,1.2
	c-0.4,0.6-0.7,1.2-0.7,1.9c-0.8-0.1-1.5,0-2.2,0.4c-1.2,0.7-1.9,2.1-1.7,3.5c0.2,1.3,1,2.3,2.3,2.8c1,0.4,2.1,0.3,3.1,0.3l0.2,0
	c1.1,0,2.2,0,2.9,0.7l1.5-0.9c0.1-0.6,0.2-1.1,0.3-1.7C116.2,85.8,116.3,85,116.4,84.3z M107.8,85.8c0.3,0.4,0.7,0.6,1.1,0.7
	c0.8,0.2,1.7,0.2,2.5,0.2c1,0,2,0,2.8,0.3c0-0.3,0.1-0.5,0.2-0.8c0.1-0.7,0.3-1.5,0.3-2.2l0-0.1c0.1-1.1,0.2-2.3-0.4-3.2
	c-0.2-0.3-0.6-0.6-1-0.7c-0.4-0.1-0.8,0-1.1,0.2c-0.7,0.3-1,1.3-0.7,2c0.5,0.8-0.5,1.7-1.2,1.1c-0.9-0.7-2.4-0.3-2.7,0.8
	C107.3,84.8,107.4,85.4,107.8,85.8z"/>
<path class="st7" d="M143.1,71c1.7-0.8,3.5-2.2,4.1-4c0.5-1.6,0-3.7-1.8-4.3c-1.2-0.4-2.3-0.1-3.4,0.5c-0.2-0.7-0.6-1.3-1.2-1.7
	c-1.4-1-3.3-0.5-4.5,0.7c-1.3,1.3-1.6,3.3-1.5,5.1c0.1,1.6,0.6,3.1,1.5,4.5l1.5,0.9c0.4-0.1,0.7-0.2,1.1-0.3
	C140.4,71.9,141.8,71.6,143.1,71z M139.4,62.6c-1-0.2-2,0.6-2.4,1.5c-1,2.1-0.3,4.7,0.8,6.6c0.2,0,0.4-0.1,0.5-0.1l0,0
	c2.4-0.6,5-1.1,6.6-3.2c0.6-0.8,1.2-2.5,0-3.1c-1.2-0.6-2.6,0.6-3.5,1.4l-0.1,0.1l-0.1,0.1c-0.7,0.6-1.8-0.6-1.1-1.2
	C140.8,63.9,140.3,62.8,139.4,62.6z"/>
<path class="st8" d="M116.1,57.6c0.1-1.4-0.1-3-0.8-4.3c-0.6-1.1-1.9-2-3.2-1.8c-1.3,0.2-2.3,1.3-2.6,2.5c-0.2,0.6-0.2,1.2-0.1,1.8
	c-1-0.1-2,0.4-2.6,1.3c-0.6,1.1-0.6,2.5,0,3.5c0.7,1.2,2,1.9,3.3,2.2c1.4,0.3,2.8,0.1,4.2-0.2l1.3-1.1c0-0.7,0.1-1.4,0.2-2.1
	C116,58.8,116.1,58.2,116.1,57.6z M111,61.3c1,0.1,2.1,0,3.1-0.2c0-0.5,0.1-1.1,0.2-1.6c0.1-0.7,0.2-1.3,0.2-2c0-1.2,0-2.8-0.9-3.7
	c-0.3-0.3-0.8-0.6-1.3-0.5c-0.4,0.1-0.7,0.5-0.9,0.9c-0.4,0.9-0.1,1.9,0.2,2.7c0.2,0.3,0.4,0.7,0.4,1.2c0.1,1-1.3,1.2-1.7,0.4
	c-0.1-0.2-0.2-0.4-0.3-0.7c-0.1-0.1-0.1-0.1-0.2-0.1c-0.3-0.1-0.6-0.2-0.9-0.1c-0.8,0.3-0.9,1.4-0.6,2.1
	C108.8,60.7,110,61.2,111,61.3z"/>
<path class="st6" d="M114.3,27.2c-0.1-2.2-0.4-4.9-1.8-6.7c-1.3-1.5-3.6-2.2-5.2-0.8c-1.2,1-1.5,2.5-1.3,3.9
	c-0.4-0.1-0.9-0.2-1.3-0.2c-1.7,0.1-3,1.4-3.4,3c-1,3.8,2.7,6.8,5.9,7.9c1.7,0.6,3.6,0.7,5.4,0.5L114,34l0,0c0,0,0-0.1,0-0.1l0-0.3
	C114.2,31.5,114.4,29.3,114.3,27.2z M103.6,30.1c1.9,2.6,5.6,3.4,8.8,3.1l0-0.1c0.3-3.3,0.6-6.9-0.5-10c-0.4-1.2-1.7-3-3.3-2.2
	c-1.7,0.9-1,3.4-0.5,4.9c0.3,1-1.3,1.6-1.6,0.6c-0.4-1.3-2.2-1.5-3.1-0.5C102.3,27,102.7,28.9,103.6,30.1z"/>
<path class="st9" d="M173.7,70.5c4.1-1.9,7.4-4.9,9.8-8.7l-1.4-0.9c-1.8,3-4.4,5.5-7.5,7.3c1.7-5,2.7-10.2,2.5-15.4l-1.7-0.5
	C176,65,169.9,76.6,162,86.4c-2-3.9-2.8-8.2-2.6-12.5l-1.7,0.1c-0.2,4.8,0.7,9.6,3,13.8c0,0,0,0,0.1,0.1c0,0,0,0,0,0
	c-1.2,1.4-2.4,2.8-3.6,4.1c-3.4,3.6-6.9,7.1-10.5,10.6c-1.4,1.4-2.8,2.7-4.2,4.1c-1.3-4.4-1.8-9-1.3-13.5l-1.7-0.4
	c-0.5,5.1,0.1,10.3,1.7,15.2c-4.4,4.4-8.7,9-12.4,14c-1.2-6.5-1.5-13.2-1.4-19.7c0-1.1,0-2.3,0.1-3.4c0.1-0.2,0.1-0.5,0-0.8
	c0.1-2.5,0.2-5.1,0.3-7.6c4.8-5.1,8.3-11.3,10.1-18l-1.5-0.9c-1.5,6-4.5,11.5-8.5,16.2c0.4-11.1,0.6-22.3-2.4-33.1
	c-0.5-1.8-1.1-3.7-1.8-5.4c1.8-4.4,2.1-9.2,1-13.8l-1.7,0.2c1,3.7,0.9,7.6-0.3,11.3c-2.1-4.8-5-9.2-8.8-13l-1.5,0.9
	c9.3,8.8,12.7,21.5,13.7,34c-4.1-1.4-7.6-4-10.5-7.4l-1.3,1.1c3.2,3.6,7.1,6.6,11.7,8c0,0,0.1,0,0.1,0c0,0,0,0,0.1,0
	c0.1,1.9,0.2,3.7,0.2,5.5c0,5-0.2,9.9-0.4,14.9c-0.1,1.9-0.2,3.9-0.2,5.8c-3.9-2.3-7.3-5.3-10.1-8.8l-1.5,0.9
	c3.2,4,7.1,7.3,11.6,9.8c-0.2,8.3-0.1,16.5,1.6,24.7c0,0.1,0,0.1,0,0.2c0,0,0,0.1,0,0.1c-0.7,1-1.4,2.1-2.1,3.1
	c-4.3,7-7.3,14.7-7.8,23c-0.1,1.1,1.6,1.3,1.7,0.3c0.5-8.8,3.9-16.8,8.7-24.1c1.8,7.1,4.7,13.9,9.4,19.5c0.7,0.8,2.1-0.1,1.4-1
	c-5-5.9-7.9-13-9.6-20.4c3.2-4.6,6.9-8.8,10.7-12.7c0.8-0.8,1.6-1.6,2.4-2.4c0.2-0.1,0.4-0.3,0.5-0.5c1.8-1.8,3.6-3.6,5.4-5.3
	c6.8-0.4,13.4-2.5,19.3-6l-0.2-1.9c-5.2,3.2-11.1,5.3-17.1,5.9c8-7.8,15.7-15.8,21-25.8C172.2,74,173,72.2,173.7,70.5z M125.5,35
	C125.5,35,125.5,35,125.5,35L125.5,35z"/>
<path class="st8" d="M126,34.7c0.6-0.4,1-0.9,1.5-1.4c0.9-1,1.8-2.3,2.1-3.7c0.2-1.2,0-2.6-0.9-3.5c-0.8-0.9-1.9-1.2-3.1-0.9
	c-0.3,0.1-0.6,0.2-0.9,0.4c0,0-0.1-0.1-0.1-0.1c-0.1-0.1-0.1-0.2-0.2-0.2c-1-0.8-2.2-0.8-3.3-0.2c-2.4,1.4-2,4.6-0.9,6.8
	c0.7,1.4,1.7,2.7,2.9,3.7l1.7-0.2c0.2-0.2,0.5-0.4,0.7-0.5l0,0C125.7,34.9,125.8,34.8,126,34.7z M121,28.2c-0.2,1.1,0.3,2.3,0.8,3.3
	c0.5,1,1.2,1.8,2,2.6c0.3-0.2,0.6-0.4,0.9-0.6c0.6-0.4,1-0.8,1.4-1.3c0.8-0.9,1.6-1.9,1.7-3.2c0-0.8-0.4-2-1.3-2.1
	c-0.3,0-0.7,0.1-1,0.3c-0.1,0.1-0.2,0.2-0.3,0.3c0,0.3,0,0.6-0.1,0.8c-0.3,0.9-1.5,0.5-1.6-0.3c0-0.3,0-0.5,0-0.7
	c0-0.1-0.1-0.3-0.2-0.4c-0.2-0.2-0.5-0.4-0.8-0.4C121.8,26.4,121.1,27.4,121,28.2z"/>
<path class="st0" d="M364.7,268.3c-0.1,0.1-0.2,0.2-0.3,0.2c-0.2,0.3-0.4,0.6-0.4,0.9c0,0.5,0.1,1,0.5,1.3l1.2,1.2h2.3v-2.3
	l-1.1-1.1C366.2,268,365.3,267.8,364.7,268.3z"/>
<path class="st0" d="M364.5,281.2c0.3,0.2,0.6,0.4,0.9,0.4c0.5,0,1-0.1,1.3-0.5l1.2-1.2v-2.3h-2.3l-1.1,1.1
	c-0.6,0.6-0.7,1.5-0.3,2.1C364.3,281,364.4,281.1,364.5,281.2z"/>
<path class="st2" d="M369.4,275.4h-1.4l-1,1h1.4L369.4,275.4z"/>
<path class="st0" d="M361.9,274.5c0,0.1,0,0.2,0,0.4c0,0.4,0.1,0.7,0.4,1c0.3,0.4,0.8,0.6,1.3,0.6h1.7l1.6-1.6l-1.6-1.6h-1.6
	C362.7,273.2,362,273.7,361.9,274.5z"/>
<path class="st2" d="M370.2,276.2l-1,1v1.4l1-1V276.2z"/>
<path class="st0" d="M372.4,280.4l-1.6-1.6l-1.6,1.6v1.6c0,0.8,0.5,1.5,1.3,1.7c0.1,0,0.2,0,0.4,0c0.4,0,0.7-0.1,1-0.4
	c0.4-0.3,0.6-0.8,0.6-1.3V280.4z"/>
<path class="st10" d="M363.5,271.9h0.4l-0.3-0.3c-0.6-0.6-0.9-1.4-0.8-2.3c0.1-0.5,0.3-1,0.6-1.5c0.2-0.3,0.4-0.5,0.7-0.7
	c1.1-0.7,2.6-0.6,3.6,0.4l0.3,0.3v-0.4c0-0.8,0.4-1.6,1-2.2c0.2-0.2,0.5-0.3,0.7-0.4V256H352v17.7h8.8
	C361.3,272.7,362.3,271.9,363.5,271.9z"/>
<path class="st2" d="M367.9,274.2h1.4l-1-1h-1.4L367.9,274.2z"/>
<path class="st2" d="M370.2,271.9l-1-1v1.4l1,1V271.9z"/>
<path class="st0" d="M379.7,275.1c0-0.1,0-0.2,0-0.4c0-0.4-0.1-0.7-0.4-1c-0.3-0.4-0.8-0.6-1.3-0.6h-1.7l-1.6,1.6l1.6,1.6h1.6
	C378.9,276.4,379.6,275.9,379.7,275.1z"/>
<path class="st2" d="M371.4,277.7l1,1v-1.4l-1-1V277.7z"/>
<path class="st2" d="M372.2,274.2h1.4l1-1h-1.4L372.2,274.2z"/>
<path class="st10" d="M367.9,282v-0.4l-0.3,0.3c-0.5,0.5-1.2,0.8-2,0.8c-0.1,0-0.2,0-0.3,0c-0.5-0.1-1-0.3-1.5-0.6
	c-0.3-0.2-0.5-0.4-0.7-0.7c-0.7-1.1-0.6-2.6,0.4-3.6l0.3-0.3h-0.4c-0.8,0-1.6-0.4-2.2-1c-0.2-0.2-0.3-0.5-0.4-0.7H352v17.7h17.7
	v-8.8C368.7,284.3,367.9,283.3,367.9,282z"/>
<path class="st10" d="M371.9,256v8.8c1,0.4,1.8,1.5,1.8,2.7v0.4l0.3-0.3c0.6-0.6,1.4-0.9,2.3-0.8c0.5,0.1,1,0.3,1.5,0.6
	c0.3,0.2,0.5,0.4,0.7,0.7c0.7,1.1,0.6,2.6-0.4,3.6l-0.3,0.3h0.4c0.9,0,1.6,0.4,2.2,1c0.2,0.2,0.3,0.5,0.4,0.7h8.9v2.2h-8.8
	c-0.4,1-1.5,1.7-2.7,1.7h-0.4l0.3,0.3c0.6,0.6,0.9,1.4,0.8,2.3c-0.1,0.5-0.3,1-0.6,1.5c-0.2,0.3-0.4,0.5-0.7,0.7
	c-0.5,0.3-1,0.5-1.5,0.5c-0.8,0-1.5-0.3-2.1-0.9l-0.3-0.3v0.4c0,0.8-0.4,1.6-1,2.2c-0.2,0.2-0.5,0.3-0.7,0.4v8.9h17.7V256H371.9z"/>
<path class="st0" d="M369.2,269.2l1.6,1.6l1.6-1.6v-1.6c0-0.8-0.5-1.5-1.3-1.7c-0.1,0-0.2,0-0.4,0c-0.4,0-0.7,0.1-1,0.4
	c-0.4,0.3-0.6,0.8-0.6,1.3V269.2z"/>
<path class="st2" d="M372.4,270.9l-1,1v1.4l1-1V270.9z"/>
<path class="st0" d="M377.1,268.4c-0.3-0.2-0.6-0.4-0.9-0.4c-0.5-0.1-1,0.1-1.3,0.5l-1.2,1.2v2.3h2.3l1.1-1.1
	c0.6-0.6,0.7-1.5,0.3-2.1C377.3,268.6,377.2,268.5,377.1,268.4z"/>
<path class="st2" d="M374.7,276.4l-1-1h-1.4l1,1H374.7z"/>
<path class="st0" d="M376.9,281.3c0.1-0.1,0.2-0.2,0.3-0.2c0.2-0.3,0.4-0.6,0.4-0.9c0.1-0.5-0.1-1-0.5-1.3l-1.2-1.2h-2.3v2.3
	l1.1,1.1C375.4,281.6,376.2,281.8,376.9,281.3z"/>
</svg>
