<?xml version="1.0" encoding="UTF-8"?>
<svg id="Ebene_1" data-name="Ebene 1" xmlns="http://www.w3.org/2000/svg" viewBox="0 0 595.28 119.06">
  <defs>
    <style>
      .cls-1 {
        fill: #f49739;
      }
    </style>
  </defs>
  <path class="cls-1" d="m16.13,72.65c0-1.03.11-1.85.3-2.81l2.25-11.56h2.7l-2.29,11.78c-.18.89-.26,1.48-.26,2.22,0,1.92.96,3.21,2.81,3.21s3.8-1.11,5.87-4.8l2.4-12.41h2.7l-2.4,12.3c-.26,1.29-.41,2.25-.41,3.03,0,1.18.52,1.77,1.59,1.77,1.15,0,2.18-.41,3.14-.85h.55l-.44,2.33c-1.44.59-2.4.81-3.84.81-1.96,0-3.62-1.11-3.58-3.77h-.18c-1.63,2.59-3.44,3.95-5.91,3.95-2.66,0-4.99-1.7-4.99-5.21Z"/>
  <path class="cls-1" d="m54.25,63.42c0,.7-.15,1.59-.33,2.51l-1.11,5.58c-.22,1.03-.33,1.88-.33,2.44,0,.96.67,1.37,1.44,1.37.89,0,1.74-.3,2.77-.78h.55l-.44,2.33c-1.15.52-2.14.74-3.4.74-2.33,0-3.62-1.11-3.62-3.32,0-.59.07-1.29.22-2.11l1.22-6.32c.18-.89.33-1.7.33-2.36,0-2.14-1.15-3.21-2.96-3.21s-3.81,1.11-5.87,4.8l-2.4,12.41h-2.7l2.55-13.15c.26-1.37.33-2.81.33-3.95v-2.11h2.7l-.07,3.47.18.04c1.63-2.55,3.4-3.88,5.76-3.88,2.96,0,5.17,1.7,5.17,5.5Z"/>
  <path class="cls-1" d="m74.75,60.39l1.92-10.05h2.7l-3.92,20.21c-.26,1.33-.41,2.4-.41,3.1,0,.92.48,1.55,1.37,1.55.78,0,1.55-.26,2.44-.66h.55l-.44,2.33c-1.33.52-2.25.7-3.32.7-2,0-3.18-1.15-3.18-3.77h-.18c-1.88,2.7-3.69,4.06-6.24,4.06-3.44,0-5.98-2.51-5.98-7.57,0-6.28,3.88-12.38,9.64-12.38,2.03,0,3.66.7,4.88,2.51l.18-.04Zm-.52,2.44c-1.33-1.92-2.73-2.55-4.54-2.55-4.43,0-6.8,5.39-6.8,10.27,0,3.47,1.55,4.95,3.55,4.95,1.77,0,4.03-1.07,6.28-4.8l1.51-7.87Z"/>
  <path class="cls-1" d="m98.03,74.06h.55l-.44,2.33c-1.7.78-3.92,1.48-6.02,1.48-5.32,0-8.42-2.92-8.42-8.02,0-6.02,3.95-11.93,10.31-11.93,3.4,0,5.65,1.74,5.65,4.65,0,3.84-3.18,6.02-9.2,6.43l-3.95.26v.63c0,3.73,2.14,5.69,5.8,5.69,1.99,0,4.1-.7,5.73-1.51Zm-11.27-6.94l3.18-.19c4.84-.3,7.02-1.63,7.02-4.17,0-1.59-1.03-2.59-3.1-2.59-3.95,0-6.32,3.18-7.09,6.95Z"/>
  <path class="cls-1" d="m112.29,60.57c-1.07,2.73-2.4,5.06-3.84,7.09-3.07,4.25-6.83,7.02-10.31,8.72h-.55l.44-2.33c2.96-1.44,6.1-4.14,8.57-7.46,1.37-1.88,2.51-3.99,3.29-6.17l-1.29-4.17,1.92-.92h.59l1.03,2.96h3.29c2.92,0,5.02,1.26,5.02,4.51,0,.81-.18,1.74-.44,2.77l-1.26,4.99c-.37,1.44-.55,2.44-.55,3.14,0,1.22.92,1.7,2.11,1.7.81,0,1.92-.41,2.88-.85h.55l-.44,2.33c-1.44.55-2.29.81-3.51.81-2.59,0-4.32-1.26-4.32-3.73,0-.74.18-1.59.44-2.59l1.63-6.58c.15-.67.26-1.26.26-1.74,0-1.74-1-2.48-2.84-2.48h-2.66Z"/>
  <path class="cls-1" d="m166.07,62.97c0,.52-.07,1.15-.18,1.77h-2.73c.07-.48.11-1,.11-1.4,0-1.81-.74-3.14-3.29-3.14-3.18,0-6.87,3.14-6.87,9.72,0,3.58,1.85,5.65,5.47,5.65,2.07,0,4.29-.67,5.95-1.51h.55l-.44,2.33c-1.77.81-4.03,1.48-6.24,1.48-5.25,0-8.09-2.99-8.09-7.83,0-7.2,4.84-12.12,9.86-12.12,3.73,0,5.91,1.85,5.91,5.06Z"/>
  <path class="cls-1" d="m171.06,70.18c0-6.54,4.03-12.26,10.42-12.26,4.25,0,6.94,2.66,6.94,7.68,0,6.54-4.03,12.26-10.42,12.26-4.25,0-6.94-2.66-6.94-7.68Zm14.52-4.58c0-3.77-1.77-5.39-4.36-5.39-4.8,0-7.31,5.28-7.31,9.97,0,3.77,1.77,5.39,4.36,5.39,4.8,0,7.31-5.28,7.31-9.97Z"/>
  <path class="cls-1" d="m209.41,63.42c0,.7-.15,1.59-.33,2.51l-1.11,5.58c-.22,1.03-.33,1.88-.33,2.44,0,.96.67,1.37,1.44,1.37.89,0,1.74-.3,2.77-.78h.55l-.44,2.33c-1.15.52-2.14.74-3.4.74-2.33,0-3.62-1.11-3.62-3.32,0-.59.07-1.29.22-2.11l1.22-6.32c.18-.89.33-1.7.33-2.36,0-2.14-1.15-3.21-2.96-3.21s-3.81,1.11-5.87,4.8l-2.4,12.41h-2.7l2.55-13.15c.26-1.37.33-2.81.33-3.95v-2.11h2.7l-.07,3.47.18.04c1.63-2.55,3.4-3.88,5.76-3.88,2.96,0,5.17,1.7,5.17,5.5Z"/>
  <path class="cls-1" d="m220.93,76.97l.44-2.36h.52c1.15.67,2.22.96,3.32.96,2.55,0,3.95-1.59,3.95-4.03,0-2.73-1.4-4.69-2.88-6.91l-2-2.99-1.96,3.55c-2.88,5.21-5.61,9.57-10.38,11.67h-.55l.44-2.33c3.03-1.63,5.54-4.99,8.72-10.79l4.62-8.42h2.14l.37.41-1.85,3.33,2.66,4.1c1.77,2.73,3.51,5.58,3.51,8.35,0,3.29-2.29,6.35-6.39,6.35-2.25,0-3.66-.41-4.69-.89Z"/>
  <path class="cls-1" d="m247.2,61.31l-1.29,6.61c-.22,1.07-.33,2.07-.33,2.99,0,2.99,2.25,4.65,5.8,4.65,1.66,0,3.44-.37,4.8-1.03h.55l-.44,2.33c-1.48.63-3.25,1-5.02,1-5.02,0-8.39-2.33-8.39-6.8,0-.3.04-.81.07-1.26-4.73,4.1-10.97,8.02-16.92,8.02h-.55l.81-2.22c5.62,0,11.3-3.84,17.21-9.16l1-5.13h-6.13l.44-2.29h6.13l1.11-5.65,2.22-.41h.55l-1.18,6.06h8.27l-.44,2.29h-8.27Z"/>
  <path class="cls-1" d="m275.6,62.79c0,.81-.18,1.74-.44,2.77l-1.26,4.99c-.37,1.44-.55,2.44-.55,3.14,0,1.22.92,1.7,2.11,1.7.81,0,1.92-.41,2.88-.85h.55l-.44,2.33c-1.44.55-2.29.81-3.51.81-2.59,0-4.29-1.26-4.29-3.73,0-.74.15-1.59.41-2.59l1.63-6.58c.15-.67.26-1.26.26-1.74,0-1.74-1-2.48-2.84-2.48h-2.48l-1.44,4.21c-2.25,6.61-5.17,10.27-9.9,12.08h-.55l.44-2.33c3.1-1.44,5.69-4.36,7.72-10.2l1.37-3.92-1.4-4.14,1.81-.96h.59l1.15,2.96h3.21c2.92,0,4.99,1.26,4.99,4.51Z"/>
  <path class="cls-1" d="m282.11,72.65c0-1.03.11-1.85.3-2.81l2.25-11.56h2.7l-2.29,11.78c-.18.89-.26,1.48-.26,2.22,0,1.92.96,3.21,2.81,3.21s3.8-1.11,5.87-4.8l2.4-12.41h2.7l-2.4,12.3c-.26,1.29-.41,2.25-.41,3.03,0,1.18.52,1.77,1.59,1.77,1.15,0,2.18-.41,3.14-.85h.55l-.44,2.33c-1.44.59-2.4.81-3.84.81-1.96,0-3.62-1.11-3.58-3.77h-.18c-1.63,2.59-3.44,3.95-5.91,3.95-2.66,0-4.99-1.7-4.99-5.21Z"/>
  <path class="cls-1" d="m321.23,62.97c0,.52-.07,1.15-.18,1.77h-2.73c.07-.48.11-1,.11-1.4,0-1.81-.74-3.14-3.29-3.14-3.18,0-6.87,3.14-6.87,9.72,0,3.58,1.85,5.65,5.47,5.65,2.07,0,4.29-.67,5.95-1.51h.55l-.44,2.33c-1.77.81-4.03,1.48-6.24,1.48-5.25,0-8.09-2.99-8.09-7.83,0-7.2,4.84-12.12,9.86-12.12,3.73,0,5.91,1.85,5.91,5.06Z"/>
  <path class="cls-1" d="m335.86,61.31l-1.29,6.61c-.22,1.07-.33,2.07-.33,2.99,0,2.99,2.25,4.65,5.8,4.65,1.66,0,3.44-.37,4.8-1.03h.55l-.44,2.33c-1.48.63-3.25,1-5.02,1-5.02,0-8.39-2.33-8.39-6.8,0-.67.11-1.88.26-2.66l.18-1.07c-3.29,3.21-8.2,7.17-12.19,9.05h-.55l.44-2.33c4.36-2.22,9.53-6.65,13-10.27l.48-2.48h-6.13l.44-2.29h6.13l1.11-5.65,2.22-.41h.55l-1.18,6.06h8.28l-.44,2.29h-8.28Z"/>
  <path class="cls-1" d="m354.25,67.52l1.99-9.24h2.7l-1.96,9.16c-.22,1.11-.33,2.14-.33,3.1,0,3.18,1.88,5.02,5.54,5.02,1.66,0,3.44-.37,4.8-1.03h.55l-.44,2.33c-1.48.63-3.25,1-5.02,1-5.06,0-8.24-2.4-8.24-6.98-2.73,2.36-5.54,4.54-8.9,5.98h-.55l.44-2.33c3.33-1.59,6.28-4.1,9.42-7.02Zm2.07-12.89l.78-3.92h3.77l-.78,3.92h-3.77Z"/>
  <path class="cls-1" d="m370.54,70.18c0-6.54,4.03-12.26,10.42-12.26,4.25,0,6.94,2.66,6.94,7.68,0,6.54-4.03,12.26-10.42,12.26-4.25,0-6.95-2.66-6.95-7.68Zm14.52-4.58c0-3.77-1.77-5.39-4.36-5.39-4.8,0-7.31,5.28-7.31,9.97,0,3.77,1.77,5.39,4.36,5.39,4.8,0,7.31-5.28,7.31-9.97Z"/>
  <path class="cls-1" d="m408.89,63.42c0,.7-.15,1.59-.33,2.51l-1.11,5.58c-.22,1.03-.33,1.88-.33,2.44,0,.96.67,1.37,1.44,1.37.89,0,1.74-.3,2.77-.78h.55l-.44,2.33c-1.15.52-2.14.74-3.4.74-2.33,0-3.62-1.11-3.62-3.32,0-.59.07-1.29.22-2.11l1.22-6.32c.18-.89.33-1.7.33-2.36,0-2.14-1.14-3.21-2.96-3.21s-3.8,1.11-5.87,4.8l-2.4,12.41h-2.7l2.55-13.15c.26-1.37.33-2.81.33-3.95v-2.11h2.7l-.07,3.47.19.04c1.62-2.55,3.4-3.88,5.76-3.88,2.96,0,5.17,1.7,5.17,5.5Z"/>
  <path class="cls-1" d="m420.16,70.62h6.87v6.87h-6.87v-6.87Z"/>
</svg>